<svg version="1.1" xmlns="http://www.w3.org/2000/svg" x="0px" y="0px" width="63.6px" height="20.9px" viewBox="0 0 63.6 20.9" overflow="scroll" enable-background="new 0 0 63.6 20.9" xml:space="preserve"><style>#skivvy-logo-color{fill:#423C3B;}</style><path id="skivvy-logo-color" d="M10.4 3.4c-0.4-0.5-1-0.9-1.8-1.2C7.8 1.8 7 1.7 6.1 1.7c-1.4 0-2.4 0.3-3 0.8C2.4 3 2.1 3.7 2.1 4.6c0 0.5 0.1 0.9 0.3 1.2C2.5 6 2.8 6.3 3.2 6.5 3.5 6.7 4 6.9 4.5 7.1c0.5 0.2 1.2 0.3 1.9 0.5C7.3 7.7 8 7.9 8.7 8.1 9.4 8.4 9.9 8.6 10.4 9c0.5 0.3 0.8 0.7 1.1 1.2 0.2 0.5 0.4 1.1 0.4 1.8 0 0.7-0.1 1.3-0.4 1.9 -0.3 0.5-0.7 1-1.2 1.3 -0.5 0.4-1.1 0.6-1.8 0.8s-1.4 0.3-2.2 0.3c-2.4 0-4.5-0.8-6.3-2.3l0.7-1.3c0.6 0.6 1.3 1.1 2.3 1.5 1 0.4 2 0.6 3.2 0.6 1.2 0 2.2-0.2 2.9-0.7 0.7-0.4 1.1-1.1 1.1-2 0-0.5-0.1-0.9-0.3-1.2S9.5 10.3 9.1 10C8.7 9.8 8.2 9.6 7.6 9.4 7 9.2 6.3 9 5.5 8.9 4.7 8.7 4 8.5 3.4 8.3 2.8 8.1 2.2 7.8 1.8 7.5 1.4 7.2 1.1 6.8 0.9 6.4s-0.3-1-0.3-1.6c0-0.7 0.1-1.4 0.4-1.9 0.3-0.6 0.7-1 1.1-1.4 0.5-0.4 1.1-0.7 1.8-0.9 0.7-0.2 1.4-0.3 2.2-0.3 1 0 1.9 0.2 2.8 0.5 0.8 0.3 1.5 0.8 2.2 1.3L10.4 3.4zM22.4 16l-4.2-5.9 -2.5 2.3V16h-1.5V0h1.5v10.9l6.4-6.3h1.7l-4.7 4.7L24 16H22.4zM25.8 2.2V0h1.5v2.2H25.8zM25.8 16V4.6h1.5V16H25.8zM33.9 16L29.3 4.6h1.6l3.9 10 3.9-10h1.4L35.5 16H33.9zM45.5 16L40.9 4.6h1.6l3.9 10 3.9-10h1.4L47.1 16H45.5zM54.4 19.5c0.1 0 0.1 0 0.2 0 0.1 0 0.1 0 0.2 0 0.1 0 0.3 0 0.5 0s0.3-0.1 0.4-0.1c0.1 0 0.1-0.1 0.2-0.2 0.1-0.1 0.2-0.3 0.3-0.5 0.1-0.2 0.3-0.6 0.5-1 0.2-0.4 0.4-1 0.7-1.7l-5-11.4H54l4.2 10 3.9-10h1.4l-5.9 14.7c-0.2 0.5-0.5 0.9-0.9 1.2s-0.9 0.4-1.6 0.4c-0.3 0-0.5 0-0.7-0.1V19.5z"/></svg>