<svg xmlns="http://www.w3.org/2000/svg" viewBox="0 0 100 69"><style>.style0{fill:#555;}</style><path d="M0.219 21.079h12.087c7.802 0 13.1 0.3 15.8 0.812c2.75 0.5 4.8 1.4 6.3 2.7 c1.432 1.2 2.3 2.6 2.7 4.135c0.358 1.5 0.5 4.5 0.5 8.951v16.451c0 4.217-0.263 7.036-0.787 8.5 c-0.525 1.422-1.439 2.534-2.744 3.337c-1.305 0.803-2.916 1.364-4.835 1.683c-1.919 0.319-4.809 0.479-8.672 0.479H0.219V21.079z M16.374 29.116v30.9c2.328 0 3.76-0.353 4.298-1.059c0.537-0.706 0.806-2.626 0.806-5.759v-18.25c0-2.128-0.09-3.491-0.269-4.091 c-0.179-0.599-0.589-1.04-1.228-1.32C19.341 29.3 18.1 29.1 16.4 29.116z" class="style0"/><path d="M93.477 0.947V44.8h6.304v11.44h-6.304v11.813H71.331V56.24H45.019V44.8L64.15 0.947H93.477z M71.331 44.8 V16.242L61.546 44.8H71.331z" class="style0"/></svg>