<?xml version="1.0" encoding="utf-8"?>
<!-- Generator: Adobe Illustrator 17.1.0, SVG Export Plug-In . SVG Version: 6.00 Build 0)  -->
<!DOCTYPE svg PUBLIC "-//W3C//DTD SVG 1.1//EN" "http://www.w3.org/Graphics/SVG/1.1/DTD/svg11.dtd">
<svg version="1.1" id="Layer_1" xmlns="http://www.w3.org/2000/svg" xmlns:xlink="http://www.w3.org/1999/xlink" x="0px" y="0px"
	 viewBox="0 0 100 100" enable-background="new 0 0 100 100" xml:space="preserve">
<path d="M10.9,4c-0.1-1.4,0.5-2.5,2.3-2.5c1.9,0,20.7,0.6,33.4,0.6C72.9,2.1,79.2,0,83.7,0c2.5,0.1,3.1,2,3.1,3.1
	c0,1.1-1.2,3.5-1.2,6.6c0,3.1,0.7,6.4,0.7,9.2c0,2.7-2.3,3.6-3.6,3.6c-1.3,0-2.1-0.5-2.1-2.8c-0.1-4.4,3.1-10.9-28.8-10.9
	c-16.3,0-16.7,1.9-16.7,7c0,5.2,0.1,22.3,0.1,24.9c0,2.7,0.8,3.5,2.9,3.5c2.1,0,18.8,0,23.3,0s9.1-2.5,9.6-8.8
	c0.2-3.4,1.1-3.5,2.8-3.5c1.7,0,3.2,1.3,2.9,4.5c-0.3,3.2-0.9,6.6-0.9,11.1c0,4.6,0.9,9.1,0.9,12.4c0,3.3-4.4,4.1-5.2,0.5
	C70.7,57,69.4,51,59.2,51c-10.2,0-18.4,0-20.7,0c-2.3,0-3.4,1.3-3.4,5c0,3.7,0,21.9,0,26.5c0,4.6,1.4,9.5,10.7,9.5
	c9.3,0,26.1,1,33.8-5c3.3-2.7,4.3-6.5,5.4-12.7c0.5-2.9,6.7-2.8,6.4,3.8c-0.2,3.1-3.1,9.6-3.1,13.8c0,3.5,0.8,8.2-2.4,8.2
	c-2.7,0-1.6-1.4-13.7-1.4c-12.1,0-53.7,0.3-60.7,0.3c-2.6,0-3.1-0.7-3.1-2.3c0-1.6,0.9-2.8,3.1-2.8c2.2,0,11.5,0.1,11.5-11.7
	c0-11.8,0-55,0-61.4S21.7,8,13.8,7.2C10.8,6.9,11,5.6,10.9,4z"/>
</svg>
