<?xml version="1.0" encoding="utf-8"?>
<!-- Generator: Adobe Illustrator 17.1.0, SVG Export Plug-In . SVG Version: 6.00 Build 0)  -->
<!DOCTYPE svg PUBLIC "-//W3C//DTD SVG 1.1//EN" "http://www.w3.org/Graphics/SVG/1.1/DTD/svg11.dtd">
<svg version="1.1" id="Layer_1" xmlns="http://www.w3.org/2000/svg" xmlns:xlink="http://www.w3.org/1999/xlink" x="0px" y="0px"
	 viewBox="0 0 32 32" enable-background="new 0 0 32 32" xml:space="preserve">
<path id="Facebook_5_" d="M11.593,6.445c0,0.838,0,4.581,0,4.581H8.236v5.602h3.357V32h6.894V16.628h4.626
	c0,0,0.433-2.686,0.643-5.624c-0.602,0-5.243,0-5.243,0s0-3.258,0-3.83c0-0.572,0.751-1.343,1.495-1.343c0.741,0,2.307,0,3.756,0
	c0-0.763,0-3.398,0-5.832c-1.935,0-4.137,0-5.107,0C11.422,0,11.593,5.608,11.593,6.445z"/>
</svg>
