<?xml version="1.0" encoding="utf-8"?>
<!-- Generator: Adobe Illustrator 17.1.0, SVG Export Plug-In . SVG Version: 6.00 Build 0)  -->
<!DOCTYPE svg PUBLIC "-//W3C//DTD SVG 1.1//EN" "http://www.w3.org/Graphics/SVG/1.1/DTD/svg11.dtd">
<svg version="1.1" id="Layer_1" xmlns="http://www.w3.org/2000/svg" xmlns:xlink="http://www.w3.org/1999/xlink" x="0px" y="0px"
	 viewBox="0 0 100 100" enable-background="new 0 0 100 100" xml:space="preserve">
<path id="Facebook_5_" fill="#FFFFFF" d="M51.8,20.2c0,2.6,0,14.4,0,14.4H41.4v17.6h10.4V100h21.6V52h14.5c0,0,1.3-8.4,2-17.6
	c-1.9,0-16.4,0-16.4,0s0-10.2,0-12s2.4-4.2,4.6-4.2c2.4,0,7.2,0,11.7,0c0-2.4,0-10.6,0-18.3C83.9,0,77,0,74,0
	C51.2,0,51.8,17.6,51.8,20.2z"/>
</svg>
