<?xml version="1.0" encoding="utf-8"?>
<!-- Generator: Adobe Illustrator 17.1.0, SVG Export Plug-In . SVG Version: 6.00 Build 0)  -->
<!DOCTYPE svg PUBLIC "-//W3C//DTD SVG 1.1//EN" "http://www.w3.org/Graphics/SVG/1.1/DTD/svg11.dtd">
<svg version="1.1" id="Layer_1" xmlns="http://www.w3.org/2000/svg" xmlns:xlink="http://www.w3.org/1999/xlink" x="0px" y="0px"
	 viewBox="0 0 100 100" enable-background="new 0 0 100 100" xml:space="preserve">
<path id="Facebook_5_" fill="#231F20" d="M50.2,32.7c0,2.2,0,12.1,0,12.1h-8.8v14.8h8.8V100h18.2V59.5h12.2c0,0,1.1-7.1,1.7-14.8
	c-1.6,0-13.8,0-13.8,0s0-8.6,0-10.1c0-1.5,2-3.5,3.9-3.5c2,0,6.1,0,9.9,0c0-2,0-8.9,0-15.4c-5.1,0-10.9,0-13.4,0
	C49.7,15.7,50.2,30.5,50.2,32.7z"/>
</svg>
