<?xml version="1.0" encoding="utf-8"?>
<!-- Generator: Adobe Illustrator 17.1.0, SVG Export Plug-In . SVG Version: 6.00 Build 0)  -->
<!DOCTYPE svg PUBLIC "-//W3C//DTD SVG 1.1//EN" "http://www.w3.org/Graphics/SVG/1.1/DTD/svg11.dtd">
<svg version="1.1" id="Layer_1" xmlns="http://www.w3.org/2000/svg" xmlns:xlink="http://www.w3.org/1999/xlink" x="0px" y="0px"
	 viewBox="0 0 100 100" enable-background="new 0 0 100 100" xml:space="preserve">
<g>
	<path d="M70,93.8H40.9l-11,0.1v-35h-6.6v35.6c0,0-0.2,5.5,5.4,5.5c5.6,0,43.3,0,43.3,0c4.1,0,4.7-3.2,4.7-7.1v-34h-6.6L70,93.8z"/>
	<rect x="33.4" y="68.4" width="33.1" height="5.7"/>
	<rect x="33.4" y="81.3" width="33.1" height="5.7"/>
	<path d="M91.8,22.6H8.2c-2.5,0-4.5,2-4.5,4.5v46.5h13.6V53.6h65.5v20.1h13.6V27.2C96.3,24.7,94.3,22.6,91.8,22.6z"/>
	<path d="M22.9,16.4c0,1,0.8,1.7,1.8,1.7l0,0L37.3,18c1,0,1.7-0.8,1.7-1.8L39,11.8l-0.6,0c0.2-1.8,2.4-2.3,6.9-2.8L56,8.9
		c2.6,0.2,5.1,0.7,5.3,2.7l-0.3,0L61,16l0,0c0,1,0.8,1.7,1.8,1.7l0,0l12.6-0.2c1,0,1.7-0.8,1.7-1.8l-0.1-4.4l-0.5,0
		C76.1,8.7,71.7,0,50.6,0C28.7,0,23.7,9.1,23.4,12l-0.5,0L22.9,16.4L22.9,16.4z"/>
</g>
</svg>
