<?xml version="1.0" encoding="utf-8"?>
<!-- Generator: Adobe Illustrator 17.1.0, SVG Export Plug-In . SVG Version: 6.00 Build 0)  -->
<!DOCTYPE svg PUBLIC "-//W3C//DTD SVG 1.1//EN" "http://www.w3.org/Graphics/SVG/1.1/DTD/svg11.dtd">
<svg version="1.1" id="Layer_1" xmlns="http://www.w3.org/2000/svg" xmlns:xlink="http://www.w3.org/1999/xlink" x="0px" y="0px"
	 viewBox="0 0 32 32" enable-background="new 0 0 32 32" xml:space="preserve">
<polygon points="27.011,5.798 27.011,0.81 24.885,0.81 24.885,5.798 19.896,5.798 19.896,7.899 24.885,7.899 24.885,12.926 
	27.011,12.926 27.011,7.899 32,7.899 32,5.798 "/>
<path d="M18.041,20.372c-0.306-0.426-0.665-0.827-1.076-1.198c-0.413-0.372-0.831-0.745-1.257-1.119l-1.435-1.117
	c-0.214-0.187-0.439-0.407-0.678-0.66c-0.239-0.252-0.358-0.604-0.358-1.058c0-0.453,0.119-0.825,0.358-1.119
	c0.24-0.292,0.492-0.571,0.757-0.838c0.426-0.319,0.838-0.657,1.237-1.017c0.399-0.359,0.757-0.758,1.077-1.198
	c0.318-0.439,0.571-0.938,0.757-1.498c0.185-0.559,0.279-1.211,0.279-1.957c0-0.744-0.106-1.41-0.319-1.996
	c-0.213-0.586-0.465-1.097-0.757-1.536c-0.293-0.44-0.598-0.812-0.917-1.119c-0.319-0.306-0.598-0.551-0.837-0.739h2.472
	l2.553-1.395h-8.214c-1.09,0-2.266,0.133-3.529,0.398C6.891,1.475,5.688,2.073,4.546,3.003C3.695,3.747,3.057,4.591,2.632,5.534
	c-0.426,0.944-0.638,1.88-0.638,2.811c0,0.771,0.146,1.535,0.439,2.292c0.292,0.757,0.717,1.43,1.275,2.014s1.249,1.056,2.074,1.415
	c0.823,0.359,1.768,0.538,2.831,0.538c0.212,0,0.424-0.006,0.637-0.02c0.213-0.013,0.425-0.033,0.638-0.06
	c-0.106,0.24-0.198,0.472-0.279,0.698c-0.08,0.226-0.12,0.512-0.12,0.856c0,0.612,0.126,1.124,0.379,1.535
	c0.253,0.413,0.525,0.805,0.817,1.177c-0.452,0.026-0.983,0.066-1.595,0.119c-0.611,0.054-1.262,0.146-1.953,0.279
	c-0.692,0.133-1.39,0.312-2.094,0.538c-0.704,0.226-1.362,0.525-1.974,0.897c-1.17,0.691-1.973,1.495-2.412,2.412
	C0.22,23.955,0,24.771,0,25.489c0,0.744,0.173,1.455,0.519,2.134c0.345,0.677,0.877,1.281,1.594,1.813
	c0.718,0.532,1.615,0.957,2.691,1.277c1.077,0.319,2.334,0.477,3.769,0.477c1.701,0,3.209-0.219,4.526-0.657
	c1.315-0.44,2.411-1.013,3.289-1.718c0.877-0.706,1.54-1.512,1.994-2.415c0.451-0.905,0.678-1.824,0.678-2.755
	c0-0.692-0.093-1.305-0.28-1.836C18.593,21.276,18.347,20.797,18.041,20.372z M10.486,13.489c-0.85,0-1.588-0.247-2.213-0.74
	c-0.625-0.493-1.143-1.1-1.555-1.82c-0.413-0.72-0.718-1.494-0.917-2.321c-0.2-0.827-0.299-1.574-0.299-2.241
	c0-0.534,0.06-1.053,0.179-1.56C5.802,4.3,6.034,3.833,6.379,3.405c0.319-0.4,0.731-0.72,1.236-0.959
	C8.12,2.206,8.638,2.085,9.17,2.085c0.824,0,1.549,0.247,2.174,0.74c0.624,0.493,1.148,1.114,1.575,1.861
	c0.425,0.746,0.744,1.547,0.957,2.4c0.212,0.854,0.319,1.64,0.319,2.36c0,0.374-0.054,0.841-0.16,1.4
	c-0.106,0.561-0.385,1.067-0.837,1.52c-0.319,0.321-0.724,0.586-1.216,0.801C11.489,13.382,10.991,13.489,10.486,13.489z
	 M14.892,28.3c-0.997,0.81-2.452,1.216-4.366,1.216c-2.154,0-3.862-0.453-5.124-1.356c-1.263-0.904-1.894-2.073-1.894-3.509
	c0-0.718,0.139-1.315,0.418-1.794c0.279-0.478,0.604-0.876,0.977-1.196c0.372-0.319,0.751-0.564,1.137-0.738
	c0.384-0.173,0.684-0.299,0.896-0.378c0.425-0.133,0.863-0.246,1.317-0.339c0.451-0.093,0.877-0.16,1.275-0.2
	c0.398-0.04,0.744-0.067,1.037-0.08c0.291-0.014,0.479-0.021,0.558-0.021c0.212,0,0.379,0,0.499,0c0.12,0,0.26,0.014,0.418,0.041
	c0.744,0.532,1.395,1.01,1.954,1.435c0.558,0.425,1.01,0.837,1.356,1.236c0.345,0.398,0.604,0.803,0.777,1.216
	c0.172,0.413,0.26,0.871,0.26,1.376C16.387,26.459,15.888,27.489,14.892,28.3z"/>
</svg>
