<?xml version="1.0" encoding="utf-8"?>
<!-- Generator: Adobe Illustrator 17.1.0, SVG Export Plug-In . SVG Version: 6.00 Build 0)  -->
<!DOCTYPE svg PUBLIC "-//W3C//DTD SVG 1.1//EN" "http://www.w3.org/Graphics/SVG/1.1/DTD/svg11.dtd">
<svg version="1.1" id="Layer_1" xmlns="http://www.w3.org/2000/svg" xmlns:xlink="http://www.w3.org/1999/xlink" x="0px" y="0px"
	 viewBox="0 0 100 100" enable-background="new 0 0 100 100" xml:space="preserve">
<path fill="#FFFFFF" d="M84.4,18.1c0-4.9,0-9.8,0-14.7c0-0.6,0.2-0.9-0.5-0.9c-1.5,0-2.9,0-4.4,0c-0.4,0-1.8-0.3-1.8,0.2
	c0,0.9,0,1.9,0,2.8c0,3.1,0,6.3,0,9.4c0,1,0,2.9,0,2.9L77,18.1c0,0-9.9,0-14.8,0c0,0,0,5.9,0,6.6c0,0,15.6,0,15.6,0v2.8
	c0,0,0,6.3,0,9.4c0,1,0,2.1,0,3.1c0,0.7,0.7,0.4,1.3,0.4c1.5,0,3,0,4.5,0c0.8,0,0.8,0.2,0.8-0.6c0-2.7,0-5.5,0-8.2
	c0-2.3,0-6.9,0-6.9s5,0,5.3,0c3,0,6,0,8.9,0c0.2,0,1.3,0.2,1.3-0.1c0-1.3,0-2.6,0-3.9c0-0.8,0-1.6,0-2.4c0-0.2-0.3-0.1-0.5-0.1
	c-1.7,0-3.5,0-5.2,0C91,18.1,87.7,18.1,84.4,18.1z"/>
<path fill="#FFFFFF" d="M56.4,63.7c-2.6-3.6-6.2-6.4-9.6-9c-1-0.8-2.1-1.6-3.1-2.5c-0.8-0.8-1.7-1.6-2.1-2.8
	c-0.4-1.2-0.3-2.6,0.1-3.8c0.9-2.6,3.7-4.4,5.7-6c2.2-1.9,4.3-4,5.7-6.5c2.7-4.8,2.9-11,1-16.1c-1.6-4-4.2-7.3-7.6-9.9
	c1.4,0,2.8,0,4.3,0c0.9,0,1.8,0,2.7,0c0.3,0,0.6,0.1,0.8-0.1c2.6-1.4,5.2-2.9,7.9-4.3c-4.5,0-9,0-13.5,0c-4.8,0-9.7-0.2-14.5,0.1
	C28.3,2.9,22.4,4,17.4,7.1c-5,3.1-8.7,7.7-10.4,13.4c-1.6,5.7-0.7,11.9,2.7,16.8c3.1,4.5,8.2,7.4,13.6,8.1c2.5,0.3,5,0.3,7.5,0
	c-1,2.3-1.5,4.4-1.1,6.9c0.4,2.5,2.1,4.5,3.6,6.5c-6,0.3-11.9,1.1-17.6,2.9c-5,1.6-10.4,4.7-13.2,9.4c-2.9,4.9-3.5,10.8-0.7,15.8
	c2.7,4.7,7.7,7.5,12.8,9c5.5,1.7,11.5,1.9,17.2,1.4c5.6-0.5,11.1-2.1,16-4.9c4.8-2.8,8.7-7,10.6-12.2C60.4,74.7,59.8,68.4,56.4,63.7
	C55.4,62.3,57.3,65,56.4,63.7z M32.8,42.2c-5.7,0-9.8-4.2-12.3-8.9c-2.7-5.2-4-11.7-2.9-17.5c1.1-5.7,6.2-9.7,12.1-9.2
	C35.3,7,39.3,12,41.5,16.8c2.2,4.8,3.4,10.4,2.6,15.6c-0.4,2.7-1.4,5-3.5,6.8C38.4,41.1,35.6,42.2,32.8,42.2z M46.5,88.4
	c-3.9,3.1-9.2,3.8-14,3.8c-5.1,0-10.4-0.9-14.8-3.6c-4.2-2.7-6.9-6.8-6.8-11.9c0.1-5.9,4.4-9.8,9.5-12c4-1.7,8.6-2.2,12.9-2.4
	c0.8,0,1.6,0,2.4,0c0.5,0,1,0,1.5,0.1c0.6,0.1,1.1,0.6,1.6,0.9c1.8,1.3,3.7,2.7,5.5,4.1c3.4,2.7,6.6,6.2,6.9,10.8
	C51.4,82.1,49.7,85.9,46.5,88.4C43.4,91,49.6,85.9,46.5,88.4z"/>
</svg>
