<svg xmlns:xlink="http://www.w3.org/1999/xlink" viewBox="0 0 100 100"><path d="M86.9,0.1H13.1C5.9,0.1,0,5.9,0,13.2v73.7c0,7.2,5.9,13.1,13.1,13.1h73.8c7.2,0,13.1-5.9,13.1-13.1V13.2 C100,5.9,94.1,0.1,86.9,0.1z M70.3,11.2h16.2c1.1,0,2,0.9,2,2v16.4c0,1.1-0.9,2-2,2H73.9c-1.6-2.1-3.6-3.9-5.7-5.5V13.3 C68.2,12.1,69.1,11.2,70.3,11.2z M50.6,30.7c10.7,0,19.5,8.7,19.5,19.5c0,10.7-8.7,19.5-19.5,19.5s-19.5-8.7-19.5-19.5 C31.1,39.4,39.9,30.7,50.6,30.7z M88.7,86.8c0,1-0.8,1.8-1.8,1.8H13.1c-1,0-1.8-0.8-1.8-1.8V42.5h10.6c-0.7,2.5-1,5-1,7.7 c0,16.4,13.3,29.7,29.7,29.7s29.7-13.3,29.7-29.7c0-2.7-0.4-5.2-1-7.7h9.4L88.7,86.8L88.7,86.8z"/></svg>