<?xml version="1.0" encoding="utf-8"?>
<!-- Generator: Adobe Illustrator 17.1.0, SVG Export Plug-In . SVG Version: 6.00 Build 0)  -->
<!DOCTYPE svg PUBLIC "-//W3C//DTD SVG 1.1//EN" "http://www.w3.org/Graphics/SVG/1.1/DTD/svg11.dtd">
<svg version="1.1" id="Layer_1" xmlns="http://www.w3.org/2000/svg" xmlns:xlink="http://www.w3.org/1999/xlink" x="0px" y="0px"
	 viewBox="0 0 32 32" enable-background="new 0 0 32 32" xml:space="preserve">
<rect x="0.803" y="10.728" width="6.239" height="19.966"/>
<path d="M3.765,8.232H3.72C1.463,8.232,0,6.705,0,4.771C0,2.8,1.506,1.306,3.808,1.306c2.302,0,3.718,1.491,3.763,3.461
	C7.571,6.701,6.11,8.232,3.765,8.232z"/>
<path d="M32,30.694h-7.071V20.364c0-2.705-1.107-4.55-3.541-4.55c-1.861,0-2.894,1.245-3.378,2.447
	c-0.181,0.429-0.152,1.029-0.152,1.629v10.804h-7.006c0,0,0.088-18.302,0-19.966h7.006v3.134c0.416-1.37,2.653-3.325,6.228-3.325
	c4.429,0,7.914,2.873,7.914,9.055V30.694z"/>
</svg>
