<?xml version="1.0" encoding="utf-8"?>
<!-- Generator: Adobe Illustrator 17.1.0, SVG Export Plug-In . SVG Version: 6.00 Build 0)  -->
<!DOCTYPE svg PUBLIC "-//W3C//DTD SVG 1.1//EN" "http://www.w3.org/Graphics/SVG/1.1/DTD/svg11.dtd">
<svg version="1.1" id="Layer_1" xmlns="http://www.w3.org/2000/svg" xmlns:xlink="http://www.w3.org/1999/xlink" x="0px" y="0px"
	 viewBox="0 0 100 100" enable-background="new 0 0 100 100" xml:space="preserve">
<polygon points="2.5,33.5 22,33.5 22,95.9 2.5,95.9 "/>
<path d="M11.8,25.7h-0.1C4.6,25.7,0,21,0,14.9S4.7,4.1,11.9,4.1s11.6,4.7,11.8,10.8C23.7,20.9,19.1,25.7,11.8,25.7z"/>
<path d="M100,95.9H77.9V63.6c0-8.5-3.5-14.2-11.1-14.2c-5.8,0-9,3.9-10.6,7.6c-0.6,1.3-0.5,3.2-0.5,5.1v33.8H33.9
	c0,0,0.3-57.2,0-62.4h21.9v9.8c1.3-4.3,8.3-10.4,19.5-10.4c13.8,0,24.7,9,24.7,28.3V95.9z"/>
</svg>
