<?xml version="1.0" encoding="utf-8"?>
<!-- Generator: Adobe Illustrator 17.1.0, SVG Export Plug-In . SVG Version: 6.00 Build 0)  -->
<!DOCTYPE svg PUBLIC "-//W3C//DTD SVG 1.1//EN" "http://www.w3.org/Graphics/SVG/1.1/DTD/svg11.dtd">
<svg version="1.1" id="Layer_1" xmlns="http://www.w3.org/2000/svg" xmlns:xlink="http://www.w3.org/1999/xlink" x="0px" y="0px"
	 viewBox="0 0 100 100" enable-background="new 0 0 100 100" xml:space="preserve">
<path d="M85.3,90.5L85.3,90.5L72.2,68.4c-1-1.7-3.2-2.2-4.9-1.2l-7.8,4.6l0.6,1.1c-3.4,1.5-6.5-1.9-11.9-9.3L37.2,44.8
	c-2.2-4.8-3.9-9.7-0.6-12l0.4,0.6l7.8-4.6v0c1.8-1.1,2.2-3.3,1.2-4.9v0L32.9,1.7c-1-1.7-3.2-2.2-4.8-1.2l-7.8,4.6l0.5,0.8
	c-4.3,3.5-15.1,20.3,6.3,57.4c22.2,38.5,43.3,38.3,48.7,35.8l0.5,0.9l7.8-4.6v0C85.8,94.3,86.2,92.1,85.3,90.5z"/>
</svg>
