<?xml version="1.0" encoding="utf-8"?>
<!-- Generator: Adobe Illustrator 17.1.0, SVG Export Plug-In . SVG Version: 6.00 Build 0)  -->
<!DOCTYPE svg PUBLIC "-//W3C//DTD SVG 1.1//EN" "http://www.w3.org/Graphics/SVG/1.1/DTD/svg11.dtd">
<svg version="1.1" id="Layer_1" xmlns="http://www.w3.org/2000/svg" xmlns:xlink="http://www.w3.org/1999/xlink" x="0px" y="0px"
	 viewBox="0 0 32 32" enable-background="new 0 0 32 32" xml:space="preserve">
<path d="M27.294,28.965v-0.007l-4.179-7.063c-0.32-0.548-1.015-0.715-1.553-0.399l-2.489,1.476l0.204,0.344
	c-1.102,0.495-2.081-0.623-3.814-2.974l-3.564-6.017c-0.704-1.539-1.261-3.102-0.19-3.856l0.114,0.195l2.489-1.471V9.187
	c0.57-0.338,0.706-1.042,0.398-1.56V7.622l-4.178-7.063c-0.319-0.548-1.014-0.717-1.552-0.399L6.492,1.635l0.152,0.253
	C5.266,3.021,1.82,8.376,8.656,20.25c7.096,12.325,13.858,12.248,15.573,11.45l0.175,0.3l2.489-1.47v-0.004
	C27.465,30.188,27.599,29.485,27.294,28.965z"/>
</svg>
