<?xml version="1.0" encoding="utf-8"?>
<!-- Generator: Adobe Illustrator 17.1.0, SVG Export Plug-In . SVG Version: 6.00 Build 0)  -->
<!DOCTYPE svg PUBLIC "-//W3C//DTD SVG 1.1//EN" "http://www.w3.org/Graphics/SVG/1.1/DTD/svg11.dtd">
<svg version="1.1" id="Layer_1" xmlns="http://www.w3.org/2000/svg" xmlns:xlink="http://www.w3.org/1999/xlink" x="0px" y="0px"
	 viewBox="0 0 32 32" enable-background="new 0 0 32 32" xml:space="preserve">
<path d="M27.815,0.027H4.185C1.874,0.027,0,1.901,0,4.212v23.576c0,2.311,1.874,4.185,4.185,4.185h23.631
	c2.312,0,4.185-1.873,4.185-4.185V4.212C32,1.901,30.127,0.027,27.815,0.027z M22.482,3.583h5.197c0.362,0,0.656,0.294,0.656,0.656
	v5.251c0,0.362-0.294,0.656-0.656,0.656h-4.028c-0.528-0.665-1.141-1.259-1.826-1.763V4.24C21.826,3.877,22.12,3.583,22.482,3.583z
	 M16.192,9.819c3.438,0,6.236,2.797,6.236,6.236c0,3.438-2.797,6.236-6.236,6.236s-6.236-2.797-6.236-6.236
	C9.956,12.616,12.753,9.819,16.192,9.819z M28.39,27.788c0,0.317-0.258,0.574-0.574,0.574H4.185c-0.317,0-0.574-0.258-0.574-0.574
	V13.593h3.387c-0.21,0.785-0.323,1.61-0.323,2.461c0,5.257,4.262,9.518,9.518,9.518s9.518-4.261,9.518-9.518
	c0-0.851-0.113-1.676-0.323-2.461h3.003V27.788z"/>
</svg>
