<svg xmlns:xlink="http://www.w3.org/1999/xlink" viewBox="0 0 100 100"><path id="pinterest-p" d="M50,0C22.4,0,0,22.4,0,50c0,20.5,12.3,38,29.9,45.8c-0.1-3.5,0-7.7,0.9-11.5c0.9-4,6.5-27.3,6.5-27.3 s-1.6-3.2-1.6-7.9c0-7.4,4.3-12.9,9.7-12.9c4.6,0,6.7,3.4,6.7,7.5c0,4.6-2.9,11.4-4.4,17.7c-1.2,5.3,2.7,9.6,7.9,9.6 c9.5,0,15.9-12.2,15.9-26.6c0-11-7.4-19.2-20.8-19.2C35.4,25.4,26,36.7,26,49.3c0,4.4,1.3,7.4,3.3,9.8c0.9,1.1,1.1,1.5,0.7,2.8 c-0.3,0.9-0.8,3.1-1,4c-0.3,1.3-1.3,1.7-2.5,1.2c-7-2.8-10.2-10.5-10.2-19.1c0-14.2,12-31.2,35.8-31.2c19.1,0,31.7,13.8,31.7,28.6 c0,19.6-10.9,34.3-27,34.3c-5.4,0-10.5-2.9-12.2-6.2c0,0-2.9,11.5-3.5,13.7c-1.1,3.9-3.1,7.7-5,10.7c4.5,1.3,9.3,2,14.2,2 c27.6,0,50-22.4,50-50C100,22.4,77.6,0,50,0z"/></svg>