<?xml version="1.0" encoding="utf-8"?>
<!-- Generator: Adobe Illustrator 17.1.0, SVG Export Plug-In . SVG Version: 6.00 Build 0)  -->
<!DOCTYPE svg PUBLIC "-//W3C//DTD SVG 1.1//EN" "http://www.w3.org/Graphics/SVG/1.1/DTD/svg11.dtd">
<svg version="1.1" id="Layer_1" xmlns="http://www.w3.org/2000/svg" xmlns:xlink="http://www.w3.org/1999/xlink" x="0px" y="0px"
	 viewBox="0 0 100 100" enable-background="new 0 0 100 100" xml:space="preserve">
<path d="M52.1,4.2c-25,0-37.6,17.9-37.6,32.9c0,9.1,3.4,17.1,10.8,20.1c1.2,0.5,2.3,0,2.6-1.3c0.2-0.9,0.8-3.3,1.1-4.2
	c0.4-1.3,0.2-1.8-0.8-2.9c-2.1-2.5-3.5-5.7-3.5-10.3c0-13.3,10-25.2,25.9-25.2c14.1,0,21.9,8.6,21.9,20.2c0,15.2-6.7,28-16.7,28
	c-5.5,0-9.6-4.6-8.3-10.1c1.6-6.7,4.6-13.9,4.6-18.7c0-4.3-2.3-7.9-7.1-7.9c-5.6,0-10.1,5.8-10.1,13.6c0,5,1.7,8.3,1.7,8.3
	S30.9,71,29.9,75.2c-2,8.5-0.3,18.9-0.2,20c0.1,0.6,0.9,0.8,1.2,0.3c0.5-0.7,7.2-8.9,9.5-17.2c0.6-2.3,3.7-14.5,3.7-14.5
	c1.8,3.5,7.2,6.6,12.9,6.6C74,70.4,85.5,55,85.5,34.3C85.5,18.7,72.2,4.2,52.1,4.2z"/>
</svg>
