<?xml version="1.0" encoding="utf-8"?>
<!-- Generator: Adobe Illustrator 17.1.0, SVG Export Plug-In . SVG Version: 6.00 Build 0)  -->
<!DOCTYPE svg PUBLIC "-//W3C//DTD SVG 1.1//EN" "http://www.w3.org/Graphics/SVG/1.1/DTD/svg11.dtd">
<svg version="1.1" id="Layer_1" xmlns="http://www.w3.org/2000/svg" xmlns:xlink="http://www.w3.org/1999/xlink" x="0px" y="0px"
	 viewBox="0 0 32 32" enable-background="new 0 0 32 32" xml:space="preserve">
<path d="M16.75,0C8.017,0,3.613,6.261,3.613,11.482c0,3.162,1.197,5.974,3.764,7.022c0.421,0.172,0.798,0.006,0.919-0.46
	c0.085-0.323,0.286-1.137,0.376-1.475c0.123-0.461,0.075-0.623-0.264-1.025c-0.74-0.873-1.214-2.004-1.214-3.604
	c0-4.645,3.476-8.803,9.05-8.803c4.936,0,7.647,3.017,7.647,7.044c0,5.3-2.345,9.773-5.827,9.773c-1.923,0-3.362-1.59-2.901-3.541
	c0.553-2.329,1.623-4.841,1.623-6.523c0-1.504-0.808-2.759-2.479-2.759c-1.966,0-3.545,2.034-3.545,4.758
	c0,1.735,0.586,2.909,0.586,2.909s-2.012,8.523-2.364,10.016c-0.703,2.972-0.106,6.617-0.055,6.985
	c0.03,0.218,0.309,0.269,0.436,0.105c0.182-0.236,2.523-3.126,3.319-6.015c0.226-0.818,1.293-5.052,1.293-5.052
	c0.639,1.218,2.505,2.291,4.49,2.291c5.909,0,9.918-5.387,9.918-12.597C28.387,5.077,23.769,0,16.75,0z"/>
</svg>
