<?xml version="1.0" encoding="utf-8"?>
<!-- Generator: Adobe Illustrator 17.1.0, SVG Export Plug-In . SVG Version: 6.00 Build 0)  -->
<!DOCTYPE svg PUBLIC "-//W3C//DTD SVG 1.1//EN" "http://www.w3.org/Graphics/SVG/1.1/DTD/svg11.dtd">
<svg version="1.1" id="Layer_1" xmlns="http://www.w3.org/2000/svg" xmlns:xlink="http://www.w3.org/1999/xlink" x="0px" y="0px"
	 viewBox="0 0 100 100" enable-background="new 0 0 100 100" xml:space="preserve">
<g>
	<path d="M13.3,73.4c-3.7,0-7,1.5-9.4,3.9v0C1.5,79.7,0,83,0,86.7c0,3.7,1.5,6.9,3.9,9.3c2.4,2.4,5.7,3.9,9.4,3.9
		c3.7,0,7-1.5,9.4-3.9l0,0c2.4-2.4,3.9-5.7,3.9-9.3c0-3.7-1.5-6.9-3.9-9.4C20.2,74.9,17,73.4,13.3,73.4z"/>
	<path d="M0,34v19.1c12.5,0,24.3,4.9,33.1,13.7c8.8,8.8,13.7,20.6,13.7,33.1h0v0H66c0-18.2-7.4-34.7-19.4-46.6
		C34.7,41.4,18.2,34,0,34z"/>
	<path d="M70.7,29.3C52.6,11.2,27.6,0,0,0v19.1c44.6,0,80.8,36.3,80.8,80.9H100C100,72.4,88.8,47.5,70.7,29.3z"/>
</g>
</svg>
