<?xml version="1.0" encoding="utf-8"?>
<!-- Generator: Adobe Illustrator 17.1.0, SVG Export Plug-In . SVG Version: 6.00 Build 0)  -->
<!DOCTYPE svg PUBLIC "-//W3C//DTD SVG 1.1//EN" "http://www.w3.org/Graphics/SVG/1.1/DTD/svg11.dtd">
<svg version="1.1" id="Layer_1" xmlns="http://www.w3.org/2000/svg" xmlns:xlink="http://www.w3.org/1999/xlink" x="0px" y="0px"
	 viewBox="0 0 32 32" enable-background="new 0 0 32 32" xml:space="preserve">
<path d="M7.254,24.735c0.774,0.775,1.247,1.825,1.249,2.995c-0.002,1.167-0.474,2.218-1.246,2.988l-0.003,0.002
	c-0.773,0.77-1.83,1.241-3.005,1.241c-1.174,0-2.229-0.472-3.002-1.242C0.476,29.947,0,28.898,0,27.73
	c0-1.17,0.476-2.223,1.247-2.995v0.001c0.774-0.771,1.828-1.245,3.002-1.245C5.424,23.49,6.479,23.965,7.254,24.735z"/>
<path d="M0.004,10.881v6.111c3.989,0.002,7.762,1.569,10.585,4.397c2.823,2.819,4.383,6.597,4.39,10.599h0.002V32h6.136
	c-0.005-5.82-2.371-11.093-6.196-14.921C11.095,13.252,5.825,10.885,0.004,10.881z"/>
<path d="M0.015,0v6.108C14.273,6.117,25.866,17.727,25.875,32H32c-0.004-8.821-3.589-16.813-9.385-22.612
	C16.82,3.591,8.832,0.004,0.015,0z"/>
</svg>
