<?xml version="1.0" encoding="utf-8"?>
<!-- Generator: Adobe Illustrator 17.1.0, SVG Export Plug-In . SVG Version: 6.00 Build 0)  -->
<!DOCTYPE svg PUBLIC "-//W3C//DTD SVG 1.1//EN" "http://www.w3.org/Graphics/SVG/1.1/DTD/svg11.dtd">
<svg version="1.1" id="Layer_1" xmlns="http://www.w3.org/2000/svg" xmlns:xlink="http://www.w3.org/1999/xlink" x="0px" y="0px"
	 viewBox="0 0 32 32" enable-background="new 0 0 32 32" xml:space="preserve">
<g>
	<g>
		<g>
			<path d="M32,6.063c-1.177,0.523-2.442,0.876-3.77,1.035c1.355-0.813,2.397-2.099,2.887-3.633c-1.268,0.753-2.674,1.3-4.169,1.594
				c-1.197-1.276-2.903-2.073-4.792-2.073c-3.626,0-6.565,2.939-6.565,6.564c0,0.515,0.058,1.015,0.17,1.497
				c-5.456-0.274-10.293-2.888-13.532-6.86c-0.565,0.97-0.889,2.097-0.889,3.301c0,2.277,1.159,4.287,2.921,5.464
				c-1.076-0.034-2.088-0.329-2.973-0.821c-0.001,0.028-0.001,0.055-0.001,0.083c0,3.181,2.263,5.834,5.266,6.437
				c-0.552,0.15-1.131,0.23-1.73,0.23c-0.423,0-0.835-0.041-1.235-0.118c0.835,2.608,3.26,4.506,6.133,4.559
				c-2.247,1.761-5.078,2.81-8.154,2.81c-0.53,0-1.053-0.031-1.566-0.091c2.906,1.862,6.357,2.949,10.064,2.949
				c12.075,0,18.679-10.004,18.679-18.679c0-0.284-0.007-0.568-0.019-0.85C30.007,8.537,31.12,7.381,32,6.063z"/>
		</g>
	</g>
</g>
</svg>
