<?xml version="1.0" encoding="utf-8"?>
<!-- Generator: Adobe Illustrator 17.1.0, SVG Export Plug-In . SVG Version: 6.00 Build 0)  -->
<!DOCTYPE svg PUBLIC "-//W3C//DTD SVG 1.1//EN" "http://www.w3.org/Graphics/SVG/1.1/DTD/svg11.dtd">
<svg version="1.1" id="Layer_1" xmlns="http://www.w3.org/2000/svg" xmlns:xlink="http://www.w3.org/1999/xlink" x="0px" y="0px"
	 viewBox="0 0 100 100" enable-background="new 0 0 100 100" xml:space="preserve">
<g>
	<g>
		<path d="M100,26.8c-0.4,9.7-7.2,23-20.4,39.9C66,84.3,54.5,93.1,45,93.1c-5.8,0-10.8-5.4-14.8-16.1c-2.7-9.9-5.4-19.7-8.1-29.6
			c-3-10.8-6.2-16.1-9.6-16.1c-0.7,0-3.4,1.6-7.8,4.7L0,29.9c4.9-4.3,9.8-8.7,14.6-13c6.6-5.7,11.5-8.7,14.8-9
			c7.8-0.8,12.5,4.6,14.3,15.9c1.9,12.3,3.3,19.9,4,22.9C50,56.9,52.4,62,55.1,62c2.1,0,5.2-3.3,9.4-9.8c4.2-6.6,6.4-11.6,6.7-15
			c0.6-5.7-1.6-8.5-6.7-8.5c-2.4,0-4.9,0.5-7.4,1.6c4.9-16,14.3-23.8,28.2-23.3C95.7,7.2,100.5,13.8,100,26.8z"/>
	</g>
</g>
</svg>
