<?xml version="1.0" encoding="utf-8"?>
<!-- Generator: Adobe Illustrator 17.1.0, SVG Export Plug-In . SVG Version: 6.00 Build 0)  -->
<!DOCTYPE svg PUBLIC "-//W3C//DTD SVG 1.1//EN" "http://www.w3.org/Graphics/SVG/1.1/DTD/svg11.dtd">
<svg version="1.1" id="Layer_1" xmlns="http://www.w3.org/2000/svg" xmlns:xlink="http://www.w3.org/1999/xlink" x="0px" y="0px"
	 viewBox="0 0 32 32" enable-background="new 0 0 32 32" xml:space="preserve">
<g>
	<g>
		<path d="M31.984,8.579c-0.142,3.11-2.319,7.366-6.524,12.762c-4.351,5.645-8.034,8.464-11.045,8.464
			c-1.865,0-3.444-1.716-4.733-5.158C8.821,21.489,7.96,18.331,7.1,15.18c-0.958-3.444-1.984-5.165-3.084-5.165
			c-0.239,0-1.074,0.502-2.51,1.506L0,9.583c1.578-1.382,3.131-2.771,4.663-4.155c2.102-1.82,3.68-2.772,4.732-2.872
			c2.483-0.24,4.016,1.458,4.591,5.09c0.618,3.922,1.051,6.362,1.289,7.318c0.717,3.25,1.505,4.873,2.367,4.873
			c0.668,0,1.671-1.049,3.012-3.151c1.339-2.106,2.055-3.706,2.15-4.809c0.192-1.816-0.525-2.72-2.15-2.72
			c-0.764,0-1.555,0.162-2.368,0.502c1.58-5.117,4.591-7.604,9.038-7.458C30.623,2.294,32.175,4.424,31.984,8.579z"/>
	</g>
</g>
</svg>
