<?xml version="1.0" encoding="utf-8"?>
<!-- Generator: Adobe Illustrator 17.1.0, SVG Export Plug-In . SVG Version: 6.00 Build 0)  -->
<!DOCTYPE svg PUBLIC "-//W3C//DTD SVG 1.1//EN" "http://www.w3.org/Graphics/SVG/1.1/DTD/svg11.dtd">
<svg version="1.1" id="Layer_1" xmlns="http://www.w3.org/2000/svg" xmlns:xlink="http://www.w3.org/1999/xlink" x="0px" y="0px"
	 viewBox="0 0 32 32" enable-background="new 0 0 32 32" xml:space="preserve">
<polygon points="8.907,11.802 10.73,11.802 10.73,6.905 12.851,0 10.999,0 9.872,4.717 9.756,4.717 8.573,0 6.736,0 8.907,7.124 "/>
<path d="M12.769,9.6c0,0.739,0.211,1.327,0.637,1.765c0.423,0.438,0.992,0.657,1.7,0.657c0.734,0,1.312-0.213,1.732-0.635
	c0.418-0.425,0.629-1.009,0.629-1.757V5.135c0-0.665-0.214-1.206-0.64-1.627c-0.429-0.422-0.978-0.633-1.648-0.633
	c-0.735,0-1.321,0.2-1.756,0.599c-0.436,0.4-0.656,0.937-0.656,1.61L12.769,9.6z M14.434,5.02c0-0.191,0.062-0.344,0.185-0.461
	c0.123-0.115,0.284-0.174,0.482-0.174c0.213,0,0.386,0.058,0.516,0.174c0.132,0.117,0.199,0.27,0.199,0.461v4.742
	c0,0.234-0.064,0.417-0.192,0.55c-0.131,0.133-0.305,0.2-0.524,0.2c-0.214,0-0.378-0.066-0.493-0.195
	c-0.117-0.131-0.174-0.316-0.174-0.556V5.02z"/>
<path d="M19.971,11.927c0.304,0,0.617-0.092,0.94-0.278c0.323-0.184,0.633-0.456,0.931-0.808v0.962h1.619V3.096h-1.619v6.607
	c-0.154,0.191-0.319,0.347-0.499,0.469c-0.183,0.122-0.333,0.183-0.453,0.183c-0.152,0-0.261-0.046-0.328-0.138
	c-0.069-0.091-0.103-0.24-0.103-0.448V3.096h-1.617v7.277c0,0.518,0.092,0.906,0.282,1.166
	C19.315,11.797,19.597,11.927,19.971,11.927z"/>
<path d="M18.811,21.316c-0.117,0-0.231,0.03-0.343,0.086c-0.113,0.058-0.224,0.144-0.333,0.265v5.424
	c0.132,0.142,0.26,0.244,0.383,0.306c0.123,0.063,0.253,0.095,0.39,0.095c0.197,0,0.346-0.061,0.437-0.182
	c0.094-0.123,0.14-0.323,0.14-0.602v-4.494c0-0.294-0.057-0.516-0.175-0.67C19.195,21.392,19.028,21.316,18.811,21.316z"/>
<path d="M24.76,21.348c-0.258,0-0.442,0.079-0.553,0.236c-0.112,0.158-0.169,0.419-0.169,0.784v0.881h1.429v-0.881
	c0-0.364-0.056-0.626-0.168-0.784C25.185,21.427,25.009,21.348,24.76,21.348z"/>
<path d="M29.16,18.022c0-2.103-1.724-3.808-3.852-3.808c-2.885-0.12-5.832-0.177-8.837-0.177c-0.156,0-0.314,0-0.47,0
	c-0.158,0-0.314,0-0.472,0c-3.003,0-5.951,0.057-8.838,0.177c-2.126,0-3.85,1.705-3.85,3.808c-0.128,1.666-0.184,3.332-0.179,4.995
	c-0.005,1.666,0.051,3.329,0.179,4.998c0,2.1,1.724,3.805,3.85,3.805C9.726,31.951,12.832,32.005,16,32
	c3.166,0.005,6.272-0.049,9.307-0.179c2.128,0,3.852-1.705,3.852-3.805c0.128-1.669,0.182-3.332,0.18-4.998
	C29.342,21.354,29.288,19.687,29.16,18.022z M8.435,28.751H6.613V18.662H4.727v-1.714h5.594v1.714H8.435V28.751z M14.92,28.751H13.3
	v-0.963c-0.298,0.356-0.608,0.625-0.929,0.81c-0.323,0.184-0.637,0.276-0.94,0.276c-0.374,0-0.655-0.129-0.845-0.388
	c-0.192-0.259-0.285-0.648-0.285-1.166v-7.276h1.618v6.672c0,0.206,0.033,0.355,0.103,0.448c0.067,0.093,0.177,0.139,0.329,0.139
	c0.117,0,0.268-0.061,0.451-0.185c0.183-0.121,0.349-0.277,0.499-0.468v-6.607h1.619V28.751z M21.151,26.947
	c0,0.618-0.126,1.092-0.38,1.42c-0.256,0.33-0.621,0.494-1.101,0.494c-0.316,0-0.597-0.064-0.847-0.193
	c-0.247-0.127-0.476-0.321-0.689-0.586v0.669h-1.635V16.948h1.635v3.799c0.219-0.266,0.449-0.468,0.694-0.605
	c0.245-0.14,0.493-0.208,0.745-0.208c0.511,0,0.904,0.185,1.174,0.557c0.268,0.372,0.405,0.914,0.405,1.624V26.947z M27.133,24.6
	h-3.095v1.644c0,0.457,0.052,0.774,0.16,0.952c0.106,0.177,0.289,0.265,0.545,0.265c0.268,0,0.458-0.075,0.564-0.225
	c0.108-0.15,0.16-0.479,0.16-0.992v-0.606h1.666v0.654c0,0.892-0.203,1.564-0.608,2.016c-0.406,0.452-1.013,0.677-1.818,0.677
	c-0.724,0-1.294-0.239-1.711-0.717c-0.416-0.48-0.625-1.137-0.625-1.975v-3.908c0-0.756,0.228-1.372,0.686-1.847
	c0.458-0.477,1.048-0.713,1.772-0.713c0.74,0,1.31,0.22,1.707,0.66c0.398,0.44,0.596,1.073,0.596,1.899V24.6z"/>
</svg>
