<?xml version="1.0" encoding="utf-8"?>
<!-- Generator: Adobe Illustrator 17.1.0, SVG Export Plug-In . SVG Version: 6.00 Build 0)  -->
<!DOCTYPE svg PUBLIC "-//W3C//DTD SVG 1.1//EN" "http://www.w3.org/Graphics/SVG/1.1/DTD/svg11.dtd">
<svg version="1.1" id="Layer_1" xmlns="http://www.w3.org/2000/svg" xmlns:xlink="http://www.w3.org/1999/xlink" x="0px" y="0px"
	 viewBox="0 0 100 100" enable-background="new 0 0 100 100" xml:space="preserve">
<g>
	<polygon points="34.4,0 30.8,14.7 30.5,14.7 26.8,0 21,0 27.8,22.3 27.8,36.9 33.5,36.9 33.5,21.6 40.2,0 	"/>
	<path d="M47.4,9c-2.3,0-4.1,0.6-5.5,1.9c-1.4,1.3-2.1,2.9-2.1,5l0,14.1c0,2.3,0.7,4.1,2,5.5c1.3,1.4,3.1,2.1,5.3,2.1
		c2.3,0,4.1-0.7,5.4-2c1.3-1.3,2-3.2,2-5.5V16c0-2.1-0.7-3.8-2-5.1C51.2,9.6,49.5,9,47.4,9z M49.4,30.5c0,0.7-0.2,1.3-0.6,1.7
		c-0.4,0.4-1,0.6-1.6,0.6c-0.7,0-1.2-0.2-1.5-0.6c-0.4-0.4-0.5-1-0.5-1.7V15.7h0c0-0.6,0.2-1.1,0.6-1.4c0.4-0.4,0.9-0.5,1.5-0.5
		c0.7,0,1.2,0.2,1.6,0.5c0.4,0.4,0.6,0.8,0.6,1.4V30.5z"/>
	<path d="M68.3,9.7v20.6c-0.5,0.6-1,1.1-1.6,1.5c-0.6,0.4-1,0.6-1.4,0.6c-0.5,0-0.8-0.1-1-0.4c-0.2-0.3-0.3-0.8-0.3-1.4V9.7h-5.1
		v22.7c0,1.6,0.3,2.8,0.9,3.6c0.6,0.8,1.5,1.2,2.6,1.2c1,0,1.9-0.3,2.9-0.9c1-0.6,2-1.4,2.9-2.5v3h5.1V9.7H68.3z"/>
</g>
<g>
	<path fill="#CC181E" d="M91.1,56.3c0-6.6-5.4-11.9-12-11.9c-9-0.4-18.2-0.6-27.6-0.6c-0.5,0-1,0-1.5,0c-0.5,0-1,0-1.5,0
		c-9.4,0-18.6,0.2-27.6,0.6c-6.6,0-12,5.3-12,11.9c-0.4,5.2-0.6,10.4-0.6,15.6c0,5.2,0.2,10.4,0.6,15.6c0,6.6,5.4,11.9,12,11.9
		c9.5,0.4,19.2,0.6,29.1,0.6c9.9,0,19.6-0.2,29.1-0.6c6.7,0,12-5.3,12-11.9c0.4-5.2,0.6-10.4,0.6-15.6
		C91.7,66.7,91.5,61.5,91.1,56.3z M26.4,89.8h-5.7V58.3h-5.9V53h17.5v5.4h-5.9V89.8z M46.6,89.8h-5.1v-3c-0.9,1.1-1.9,2-2.9,2.5
		c-1,0.6-2,0.9-2.9,0.9c-1.2,0-2-0.4-2.6-1.2c-0.6-0.8-0.9-2-0.9-3.6V62.6h5.1v20.8c0,0.6,0.1,1.1,0.3,1.4c0.2,0.3,0.6,0.4,1,0.4
		c0.4,0,0.8-0.2,1.4-0.6c0.6-0.4,1.1-0.9,1.6-1.5V62.6h5.1V89.8z M66.1,84.2L66.1,84.2c0,1.9-0.4,3.4-1.2,4.4
		c-0.8,1-1.9,1.5-3.4,1.5c-1,0-1.9-0.2-2.6-0.6c-0.8-0.4-1.5-1-2.2-1.8v2.1h-5.1V53h5.1v11.9c0.7-0.8,1.4-1.5,2.2-1.9
		c0.8-0.4,1.5-0.6,2.3-0.6c1.6,0,2.8,0.6,3.7,1.7c0.8,1.2,1.3,2.9,1.3,5.1V84.2z M84.8,82.2c0,2.8-0.6,4.9-1.9,6.3
		c-1.3,1.4-3.2,2.1-5.7,2.1c-2.3,0-4-0.7-5.3-2.2c-1.3-1.5-2-3.6-2-6.2V70c0-2.4,0.7-4.3,2.1-5.8c1.4-1.5,3.3-2.2,5.5-2.2
		c2.3,0,4.1,0.7,5.3,2.1c1.2,1.4,1.9,3.4,1.9,5.9v6.9h-9.7V82c0,1.4,0.2,2.4,0.5,3c0.3,0.6,0.9,0.8,1.7,0.8c0.8,0,1.4-0.2,1.8-0.7
		c0.3-0.5,0.5-1.5,0.5-3.1v-1.9h5.2V82.2z"/>
	<path fill="#CC181E" d="M79.6,69.9c0-1.1-0.2-2-0.5-2.5c-0.4-0.5-0.9-0.7-1.7-0.7c-0.8,0-1.4,0.2-1.7,0.7c-0.3,0.5-0.5,1.3-0.5,2.5
		v2.8h4.5V69.9z"/>
	<path fill="#CC181E" d="M58.8,66.6c-0.4,0-0.7,0.1-1.1,0.3c-0.4,0.2-0.7,0.5-1,0.8v17c0.4,0.4,0.8,0.8,1.2,1
		c0.4,0.2,0.8,0.3,1.2,0.3c0.6,0,1.1-0.2,1.4-0.6c0.3-0.4,0.4-1,0.4-1.9v-14c0-0.9-0.2-1.6-0.5-2.1C60,66.8,59.5,66.6,58.8,66.6z"/>
</g>
</svg>
